<svg width="20" height="25" viewBox="0 0 20 25" fill="none" xmlns="http://www.w3.org/2000/svg">
<path d="M0 15.4826C0 14.9411 0.373096 14.5021 0.833333 14.5021H19.1667C19.6269 14.5021 20 14.9411 20 15.4826V23.9337C20 24.4752 19.6269 24.9142 19.1667 24.9142H0.833334C0.373096 24.9142 0 24.4752 0 23.9337V15.4826Z" fill="#D9D9D9"/>
<path d="M0 1.8948C0 1.35325 0.373096 0.914246 0.833333 0.914246H19.1667C19.6269 0.914246 20 1.35325 20 1.8948V10.3459C20 10.8874 19.6269 11.3264 19.1667 11.3264H0.833334C0.373096 11.3264 0 10.8874 0 10.3459V1.8948Z" fill="#D9D9D9"/>
</svg>
